# xmcd
#
# Track frame offsets: 
#        150
#        12912
#        27957
#        42980
#        56760
#        73532
#        82902
#        102267
#        116865
#        131782
#        147432
#        162765
#        177935
#        188460
#        201312
#        213550
#        225692
#        237722
#        252730
#        263245
#        277820
#        287135
#        296490
#        306637
#
# Disc length: 4246 seconds
#
# Revision: 0
# Processed by: cddbd v1.5.2PL0 Copyright (c) Steve Scherf et al.
# Submitted via: ExactAudioCopy v1.0b2
#
DISCID=76109418
DTITLE=Conway Twitty and Freddy Weller - Weller and Twitty
DYEAR=1900
DGENRE=Country
TTITLE0=Freddy Weller - Midnight Driver
TTITLE1=Freddy Weller - Right In The Prime Of Her Life
TTITLE2=Freddy Welller - Shooting From The Heart
TTITLE3=Freddy Welller - Trying To Get Around 'em All
TTITLE4=Freddy Welller - If You Knew How Much I Wanted You
TTITLE5=Freddy Welller - Back On The Streets
TTITLE6=Freddy Welller - Time Machine
TTITLE7=Freddy Welller - Intensive Care
TTITLE8=Freddy Welller - You Believed In A Dreamer
TTITLE9=Freddy Welller - Midlife Crisis
TTITLE10=Freddy Welller - One Dream At A Time
TTITLE11=Freddy Welller - Atlanta
TTITLE12=Conway Twitty - Born To Sing The Blues
TTITLE13=Conway Twitty - Crazy Dreams
TTITLE14=Conway Twitty - Shake It Up Baby
TTITLE15=Conway Twitty - Golly Gosh Oh Gee
TTITLE16=Conway Twitty - Maybe Baby
TTITLE17=Conway Twitty - Why Can't I Get Through To You
TTITLE18=Conway Twitty - Double Talk Baby
TTITLE19=Conway Twitty - I Need Your Lovin'
TTITLE20=Conway Twitty - This Road That I Walk
TTITLE21=Conway Twitty - I Wonder If You Told Her
TTITLE22=Conway Twitty - Midnight
TTITLE23=Conway Twitty - You Made Me What I Am Today
EXTD=
EXTT0=
EXTT1=
EXTT2=
EXTT3=
EXTT4=
EXTT5=
EXTT6=
EXTT7=
EXTT8=
EXTT9=
EXTT10=
EXTT11=
EXTT12=
EXTT13=
EXTT14=
EXTT15=
EXTT16=
EXTT17=
EXTT18=
EXTT19=
EXTT20=
EXTT21=
EXTT22=
EXTT23=
PLAYORDER=
